<?xml version="1.0" encoding="UTF-8" standalone="no"?>
<!-- Created with Inkscape (http://www.inkscape.org/) -->
<svg id="svg2" xmlns:rdf="http://www.w3.org/1999/02/22-rdf-syntax-ns#" xmlns="http://www.w3.org/2000/svg" height="395.22mm" viewBox="0 0 1233.7501 1400.4034" width="348.19mm" version="1.1" xmlns:cc="http://creativecommons.org/ns#" xmlns:dc="http://purl.org/dc/elements/1.1/">
 <metadata id="metadata7">
  <rdf:RDF>
   <cc:Work rdf:about="">
    <dc:format>image/svg+xml</dc:format>
    <dc:type rdf:resource="http://purl.org/dc/dcmitype/StillImage"/>
    <dc:title/>
   </cc:Work>
  </rdf:RDF>
 </metadata>
 <g id="layer1" fill="#00d300" transform="translate(198.63 341.23)">
  <path id="path4189" d="m221.37 1058.6c-5.612-0.7004-21.542-4.1932-28.365-6.2196l-6.0099-1.7848v-28.53l9.0625 4.2935c23.578 11.17 48.539 12.39 56.637 2.7672 4.4969-5.3442 4.1236-11.361-1.0244-16.509-3.5536-3.5535-6.2341-4.5876-20.938-8.0775-20.864-4.952-29.755-8.8342-36.171-15.795-9.2115-9.9934-11.301-27.032-5.0856-41.479 9.6364-22.4 39.418-28.266 87.207-17.178 2.7056 0.62787 2.8125 1.1726 2.8125 14.334v13.682l-5.9375-2.5472c-14.672-6.2945-36.09-9.043-46.956-6.0258-11.275 3.1309-14.512 14.93-5.8563 21.349 1.7319 1.2844 10.648 3.9365 20 5.9495 22.729 4.8921 30.251 7.8874 37.547 14.95 7.8264 7.5766 10.636 16.426 9.496 29.91-1.7354 20.53-11.777 31.428-33.129 35.953-7.6162 1.6144-24.203 2.0917-33.289 0.9579zm121.25 0c-5.612-0.7004-21.542-4.1932-28.365-6.2196l-6.0099-1.7848v-28.53l9.0625 4.2935c23.578 11.17 48.539 12.39 56.637 2.7672 4.4969-5.3442 4.1236-11.361-1.0244-16.509-3.5536-3.5535-6.2341-4.5876-20.938-8.0775-20.864-4.952-29.755-8.8342-36.171-15.795-9.2115-9.9934-11.301-27.032-5.0856-41.479 9.6364-22.4 39.418-28.266 87.207-17.178 2.7056 0.62787 2.8125 1.1726 2.8125 14.334v13.682l-5.9375-2.5472c-14.672-6.2945-36.09-9.043-46.956-6.0258-11.275 3.1309-14.512 14.93-5.8563 21.349 1.7319 1.2844 10.648 3.9365 20 5.9495 22.729 4.8921 30.251 7.8874 37.547 14.95 7.8264 7.5766 10.636 16.426 9.496 29.91-1.7354 20.53-11.777 31.428-33.129 35.953-7.6162 1.6144-24.203 2.0917-33.289 0.9579zm280-1.0334c-19.348-4.0213-36.667-16.632-44.361-32.3-9.4978-19.342-9.7867-45.57-0.72008-65.374 6.6295-14.481 23.09-27.568 40.762-32.409 17.145-4.6969 43.964-3.2882 64.262 3.3752l8.181 2.6856v27.024l-9.0984-4.3208c-16.658-7.911-35.439-10.076-49.486-5.7039-10.57 3.2896-16.744 8.5941-21.684 18.63-3.9227 7.9681-4.1061 8.9851-4.1061 22.772 0 13.998 0.13121 14.692 4.375 23.151 7.6054 15.159 19.968 21.529 39.31 20.253 15.137-0.9983 14.44-0.2543 14.44-15.416v-12.991h-20v-22.5h51.25v63.496l-9.0625 3.2474c-14.401 5.1604-24.238 7.0223-40.312 7.631-10.31 0.3904-17.736-0.0007-23.75-1.2507zm256.25 1.0334c-5.612-0.7004-21.542-4.1932-28.365-6.2196l-6.0099-1.7848v-28.53l9.0625 4.2935c23.578 11.17 48.539 12.39 56.637 2.7672 4.4969-5.3442 4.1236-11.361-1.0244-16.509-3.5536-3.5535-6.2341-4.5876-20.938-8.0775-20.864-4.952-29.755-8.8342-36.171-15.795-9.2115-9.9934-11.301-27.032-5.0856-41.479 9.6364-22.4 39.418-28.266 87.207-17.178 2.7056 0.62787 2.8125 1.1726 2.8125 14.334v13.682l-5.9375-2.5472c-14.672-6.2945-36.09-9.043-46.956-6.0258-11.275 3.1309-14.512 14.93-5.8563 21.349 1.7319 1.2844 10.648 3.9365 20 5.9495 22.729 4.8921 30.251 7.8874 37.547 14.95 7.8264 7.5766 10.636 16.426 9.496 29.91-1.7354 20.53-11.777 31.428-33.129 35.953-7.6162 1.6144-24.203 2.0917-33.289 0.9579zm-989.38-66.657v-65h42.204l9.0808 20.938c4.9944 11.516 11.743 27.074 14.997 34.574 5.1583 11.89 6.0888 13.315 7.2611 11.125 0.73952-1.3819 6.9327-15.394 13.763-31.137 6.83-15.744 13.133-30.172 14.007-32.062l1.5887-3.4375h42.098v130h-31.22l-0.32752-46.972-0.32754-46.972-14.925 34.472-14.925 34.472h-21.59l-14.905-34.465-14.905-34.466-0.32754 46.965-0.32752 46.965h-31.22v-65zm177.5 0v-65h90v25h-56.25v25h53.75v25h-53.75v30h58.75v25h-92.5v-65zm359.75 59.06c1.2313-3.2656 12.057-32.512 24.057-64.991l21.819-59.054h40l21.819 59.054c12 32.479 22.826 61.725 24.057 64.991l2.2388 5.9375h-33.488l-4.1881-11.873-4.1881-11.873h-26.562c-15.9 0-26.562 0.4731-26.562 1.1822 0 0.6516-1.7407 5.9954-3.8682 11.875l-3.8682 10.69h-33.504l2.2388-5.9375zm75.094-66.84c-4.8024-13.903-8.9235-25.47-9.1579-25.704-0.23443-0.2345-2.2522 5.0936-4.484 11.84-2.2318 6.7466-6.2108 18.313-8.8422 25.704l-4.7844 13.437h36l-8.7317-25.278zm222.66 7.7778v-65h90v25h-56.25v25h53.75v25h-53.75v30h58.75v25h-92.5v-65zm-813.75-100.91c-16.81-1.8535-40.649-11.038-56.403-21.731-10.201-6.9237-24.072-20.795-30.996-30.996-7.6414-11.258-15.617-28.857-19.047-42.028l-2.9296-11.25v-1020l2.9296-11.25c5.7613-22.125 17.716-43.258 33.264-58.807 15.548-15.548 36.682-27.503 58.807-33.264l11.25-2.9296h1021.2l11.25 2.9296c22.125 5.7613 43.258 17.716 58.807 33.264 15.548 15.548 27.503 36.682 33.264 58.807l2.9296 11.25v1020l-2.9296 11.25c-5.7613 22.125-17.716 43.258-33.264 58.807-15.24 15.24-36.088 27.158-58.182 33.259l-10.625 2.9342-507.5 0.1185c-279.12 0.0651-509.47-0.0986-511.87-0.36393zm1018.7-65.17c19.682-7.0485 33.167-20.533 40.215-40.215l2.9098-8.125v-1005l-2.9098-8.125c-7.0485-19.682-20.533-33.167-40.215-40.215l-8.125-2.9098h-1006.2l-8.125 2.9098c-19.682 7.0485-33.167 20.533-40.215 40.215l-2.9097 8.125-0.34157 496.88c-0.228 331.67 0.0804 499.63 0.92754 505.18 4.2618 27.873 24.713 48.911 52.015 53.507 3.3818 0.56923 230.87 0.95807 505.52 0.8641l499.38-0.17088 8.125-2.9098zm-863.94-117.4c1.5177-2.9079 6.4128-13.764 11.413-25.312 2.2328-5.1562 5.6848-12.93 7.6712-17.275 1.9864-4.3448 3.6116-8.1276 3.6116-8.4062 0-0.27856 1.7367-4.3174 3.8593-8.9753 2.1226-4.6578 4.6539-10.297 5.625-12.531 2.1196-4.8769 2.716-6.2405 14.793-33.821 5.21-11.899 9.4728-21.842 9.4728-22.096 0-0.25436 1.9688-4.7247 4.375-9.9341s4.375-10.032 4.375-10.716c0-0.78971-10.368-1.2447-28.362-1.2447-15.902 0-31.69-0.6241-35.937-1.4206-29.933-5.6135-53.492-17.532-74.2-37.537-20.834-20.127-31.303-39.827-37.639-70.825-1.912-9.3548-1.9171-469.79-0.005-479.18 2.0254-9.9475 7.3412-27.054 10.685-34.385 4.9057-10.755 17.381-28.311 26.836-37.766 19.833-19.833 43.25-32.244 72.143-38.236 8.051-1.6696 52.295-1.8963 370.08-1.8963 244.95 0 363.32 0.41891 368.36 1.3036 7.8401 1.378 19.482 4.4668 23.667 6.2791 1.375 0.59549 5.8281 2.5185 9.8958 4.2733 30.252 13.051 58.425 44.769 69.365 78.093 6.7215 20.475 6.4812 9.9513 6.0958 266.93l-0.35621 237.5-2.8083 10c-1.5446 5.5-3.2962 11.125-3.8924 12.5-4.9964 11.522-11.475 23.737-15.913 30-5.5983 7.9018-23.116 25.539-30.494 30.701-8.6679 6.0651-24.887 14.049-35.327 17.39-20.484 6.5553-8.3615 6.2833-280.08 6.2836l-252.27 0.00021-15.859 10.705c-8.7224 5.8877-27.671 18.791-42.109 28.673-14.438 9.8824-33.562 22.944-42.5 29.026-47.416 32.266-92.24 62.912-100 68.369-9.1711 6.4493-23.689 15.727-24.61 15.727-0.62198 0-0.60495-0.95358 0.039-2.1875z" fill="#00d300"/>
 </g>
</svg>
